<svg xmlns="http://www.w3.org/2000/svg" width="30" height="30" viewBox="0 0 30 30">
    <defs>
        <style>
            .cls-1{fill:#1877f2}
        </style>
    </defs>
    <g id="ic_exchange" transform="translate(-672.999 -357)">
        <path id="패스_28" d="M460.784 165.823A3.174 3.174 0 0 1 464 162.69h20.985l-4.232 4.125 1.515 1.477 6.061-5.908a1.026 1.026 0 0 0 0-1.477L482.266 155l-1.515 1.477 4.232 4.125H464a5.3 5.3 0 0 0-5.357 5.221V170h2.143zm0 0" class="cls-1" transform="translate(214.358 202)"/>
        <path id="패스_29" d="M486.5 159.177a3.174 3.174 0 0 1-3.214 3.133H462.3l4.232-4.125-1.515-1.477-6.061 5.908a1.026 1.026 0 0 0 0 1.477l6.06 5.907 1.515-1.477-4.231-4.123h20.985a5.3 5.3 0 0 0 5.357-5.221V155H486.5zm0 0" class="cls-1" transform="translate(214.358 217)"/>
    </g>
</svg>
