<svg xmlns="http://www.w3.org/2000/svg" width="86.433" height="15.912" viewBox="0 0 86.433 15.912">
    <defs>
        <style>
            .cls-1{fill:#1877f2}
        </style>
    </defs>
    <g id="logo" transform="translate(-172.198 -394.707)">
        <g id="그룹_2" transform="translate(172.198 394.707)">
            <path id="패스_5" d="M232.5 403.02a4.249 4.249 0 0 0-2.667.93l-.209.15v-.749h-3.911v14.731h3.911v-8.242c0-1.595.65-2.715 1.739-2.993a2.29 2.29 0 0 1 .547-.068 2.6 2.6 0 0 1 1.586.587l1.839-2.866a4.094 4.094 0 0 0-2.835-1.48z" class="cls-1" transform="translate(-225.712 -402.593)"/>
            <path id="패스_6" d="M364.211 407.368l2.937-2.916a7.6 7.6 0 0 0-5.715-2.628 7.952 7.952 0 0 0 0 15.9 7.6 7.6 0 0 0 5.715-2.625l-2.937-2.917a3.562 3.562 0 0 1-2.777 1.34 3.746 3.746 0 0 1 0-7.488 3.561 3.561 0 0 1 2.777 1.334z" class="cls-1" transform="translate(-309.2 -401.817)"/>
            <path id="패스_7" d="M402.23 402.341a7.668 7.668 0 0 0 0 15.328 7.219 7.219 0 0 0 3.814-1.095l.2-.124v1.429h3.405v-7.873a7.554 7.554 0 0 0-7.419-7.665zm0 11.3a3.633 3.633 0 1 1 3.515-3.631 3.58 3.58 0 0 1-3.515 3.626z" class="cls-1" transform="translate(-335.986 -402.154)"/>
            <path id="패스_8" d="M449.222 403.949l-.208.15v-.749H445.1v14.731h3.91v-8.242c0-1.594.651-2.715 1.742-2.993a2.261 2.261 0 0 1 .547-.068 2.611 2.611 0 0 1 1.6.6l2.32-2.865a6.168 6.168 0 0 0-3.328-1.489 4.254 4.254 0 0 0-2.669.925z" class="cls-1" transform="translate(-368.786 -402.593)"/>
            <path id="패스_9" d="M310.877 402.3a7.838 7.838 0 0 0-7.7 7.953v7.61h4.072v-7.61a3.631 3.631 0 1 1 7.258 0v7.61h4.072v-7.61a7.839 7.839 0 0 0-7.702-7.953z" class="cls-1" transform="translate(-276.229 -402.13)"/>
            <path id="패스_10" d="M260.178 401.8a7.191 7.191 0 0 0-5.428 2.292 8.063 8.063 0 0 0-2.164 5.743 7.808 7.808 0 0 0 2.172 5.626 7.486 7.486 0 0 0 5.613 2.251 8.475 8.475 0 0 0 3.825-.812 7.158 7.158 0 0 0 2.053-1.587l-2.752-2.733a4.306 4.306 0 0 1-3.151 1.3 3.717 3.717 0 0 1-2.531-.844 3.432 3.432 0 0 1-1.094-1.739l-.05-.174h11.289l.018-1.01a8.427 8.427 0 0 0-2.171-6.02 7.445 7.445 0 0 0-5.629-2.293zm-3.236 5.827l.113-.206a3.562 3.562 0 0 1 .883-1.116 3.828 3.828 0 0 1 2.416-.793 3.6 3.6 0 0 1 2.218.7 3.336 3.336 0 0 1 1.033 1.211l.1.2z" class="cls-1" transform="translate(-243.238 -401.804)"/>
        </g>
    </g>
</svg>
